<svg width="495" height="492" viewBox="0 0 495 492" fill="none" xmlns="http://www.w3.org/2000/svg">
<path d="M15 0H0V14.9091H15V0Z" fill="black"/>
<path d="M30 0H15V14.9091H30V0Z" fill="black"/>
<path d="M45 0H30V14.9091H45V0Z" fill="black"/>
<path d="M60 0H45V14.9091H60V0Z" fill="black"/>
<path d="M75 0H60V14.9091H75V0Z" fill="black"/>
<path d="M90 0H75V14.9091H90V0Z" fill="black"/>
<path d="M105 0H90V14.9091H105V0Z" fill="black"/>
<path d="M135 0H120V14.9091H135V0Z" fill="black"/>
<path d="M165 0H150V14.9091H165V0Z" fill="black"/>
<path d="M180 0H165V14.9091H180V0Z" fill="black"/>
<path d="M225 0H210V14.9091H225V0Z" fill="black"/>
<path d="M270 0H255V14.9091H270V0Z" fill="black"/>
<path d="M300 0H285V14.9091H300V0Z" fill="black"/>
<path d="M330 0H315V14.9091H330V0Z" fill="black"/>
<path d="M345 0H330V14.9091H345V0Z" fill="black"/>
<path d="M360 0H345V14.9091H360V0Z" fill="black"/>
<path d="M375 0H360V14.9091H375V0Z" fill="black"/>
<path d="M405 0H390V14.9091H405V0Z" fill="black"/>
<path d="M420 0H405V14.9091H420V0Z" fill="black"/>
<path d="M435 0H420V14.9091H435V0Z" fill="black"/>
<path d="M450 0H435V14.9091H450V0Z" fill="black"/>
<path d="M465 0H450V14.9091H465V0Z" fill="black"/>
<path d="M480 0H465V14.9091H480V0Z" fill="black"/>
<path d="M495 0H480V14.9091H495V0Z" fill="black"/>
<path d="M15 14.9091H0V29.8182H15V14.9091Z" fill="black"/>
<path d="M105 14.9091H90V29.8182H105V14.9091Z" fill="black"/>
<path d="M150 14.9091H135V29.8182H150V14.9091Z" fill="black"/>
<path d="M180 14.9091H165V29.8182H180V14.9091Z" fill="black"/>
<path d="M195 14.9091H180V29.8182H195V14.9091Z" fill="black"/>
<path d="M210 14.9091H195V29.8182H210V14.9091Z" fill="black"/>
<path d="M225 14.9091H210V29.8182H225V14.9091Z" fill="black"/>
<path d="M255 14.9091H240V29.8182H255V14.9091Z" fill="black"/>
<path d="M270 14.9091H255V29.8182H270V14.9091Z" fill="black"/>
<path d="M315 14.9091H300V29.8182H315V14.9091Z" fill="black"/>
<path d="M375 14.9091H360V29.8182H375V14.9091Z" fill="black"/>
<path d="M405 14.9091H390V29.8182H405V14.9091Z" fill="black"/>
<path d="M495 14.9091H480V29.8182H495V14.9091Z" fill="black"/>
<path d="M15 29.8182H0V44.7273H15V29.8182Z" fill="black"/>
<path d="M45 29.8182H30V44.7273H45V29.8182Z" fill="black"/>
<path d="M60 29.8182H45V44.7273H60V29.8182Z" fill="black"/>
<path d="M75 29.8182H60V44.7273H75V29.8182Z" fill="black"/>
<path d="M105 29.8182H90V44.7273H105V29.8182Z" fill="black"/>
<path d="M150 29.8182H135V44.7273H150V29.8182Z" fill="black"/>
<path d="M165 29.8182H150V44.7273H165V29.8182Z" fill="black"/>
<path d="M180 29.8182H165V44.7273H180V29.8182Z" fill="black"/>
<path d="M195 29.8182H180V44.7273H195V29.8182Z" fill="black"/>
<path d="M210 29.8182H195V44.7273H210V29.8182Z" fill="black"/>
<path d="M225 29.8182H210V44.7273H225V29.8182Z" fill="black"/>
<path d="M255 29.8182H240V44.7273H255V29.8182Z" fill="black"/>
<path d="M300 29.8182H285V44.7273H300V29.8182Z" fill="black"/>
<path d="M315 29.8182H300V44.7273H315V29.8182Z" fill="black"/>
<path d="M330 29.8182H315V44.7273H330V29.8182Z" fill="black"/>
<path d="M375 29.8182H360V44.7273H375V29.8182Z" fill="black"/>
<path d="M405 29.8182H390V44.7273H405V29.8182Z" fill="black"/>
<path d="M435 29.8182H420V44.7273H435V29.8182Z" fill="black"/>
<path d="M450 29.8182H435V44.7273H450V29.8182Z" fill="black"/>
<path d="M465 29.8182H450V44.7273H465V29.8182Z" fill="black"/>
<path d="M495 29.8182H480V44.7273H495V29.8182Z" fill="black"/>
<path d="M15 44.7273H0V59.6364H15V44.7273Z" fill="black"/>
<path d="M45 44.7273H30V59.6364H45V44.7273Z" fill="black"/>
<path d="M60 44.7273H45V59.6364H60V44.7273Z" fill="black"/>
<path d="M75 44.7273H60V59.6364H75V44.7273Z" fill="black"/>
<path d="M105 44.7273H90V59.6364H105V44.7273Z" fill="black"/>
<path d="M150 44.7273H135V59.6364H150V44.7273Z" fill="black"/>
<path d="M210 44.7273H195V59.6364H210V44.7273Z" fill="black"/>
<path d="M240 44.7273H225V59.6364H240V44.7273Z" fill="black"/>
<path d="M255 44.7273H240V59.6364H255V44.7273Z" fill="black"/>
<path d="M300 44.7273H285V59.6364H300V44.7273Z" fill="black"/>
<path d="M315 44.7273H300V59.6364H315V44.7273Z" fill="black"/>
<path d="M405 44.7273H390V59.6364H405V44.7273Z" fill="black"/>
<path d="M435 44.7273H420V59.6364H435V44.7273Z" fill="black"/>
<path d="M450 44.7273H435V59.6364H450V44.7273Z" fill="black"/>
<path d="M465 44.7273H450V59.6364H465V44.7273Z" fill="black"/>
<path d="M495 44.7273H480V59.6364H495V44.7273Z" fill="black"/>
<path d="M15 59.6364H0V74.5455H15V59.6364Z" fill="black"/>
<path d="M45 59.6364H30V74.5455H45V59.6364Z" fill="black"/>
<path d="M60 59.6364H45V74.5455H60V59.6364Z" fill="black"/>
<path d="M75 59.6364H60V74.5455H75V59.6364Z" fill="black"/>
<path d="M105 59.6364H90V74.5455H105V59.6364Z" fill="black"/>
<path d="M150 59.6364H135V74.5455H150V59.6364Z" fill="black"/>
<path d="M165 59.6364H150V74.5455H165V59.6364Z" fill="black"/>
<path d="M180 59.6364H165V74.5455H180V59.6364Z" fill="black"/>
<path d="M195 59.6364H180V74.5455H195V59.6364Z" fill="black"/>
<path d="M210 59.6364H195V74.5455H210V59.6364Z" fill="black"/>
<path d="M225 59.6364H210V74.5455H225V59.6364Z" fill="black"/>
<path d="M240 59.6364H225V74.5455H240V59.6364Z" fill="black"/>
<path d="M270 59.6364H255V74.5455H270V59.6364Z" fill="black"/>
<path d="M285 59.6364H270V74.5455H285L285 59.6364Z" fill="black"/>
<path d="M345 59.6364H330V74.5455H345V59.6364Z" fill="black"/>
<path d="M405 59.6364H390V74.5455H405V59.6364Z" fill="black"/>
<path d="M435 59.6364H420V74.5455H435V59.6364Z" fill="black"/>
<path d="M450 59.6364H435V74.5455H450V59.6364Z" fill="black"/>
<path d="M465 59.6364H450V74.5455H465V59.6364Z" fill="black"/>
<path d="M495 59.6364H480V74.5455H495V59.6364Z" fill="black"/>
<path d="M15 74.5455H0V89.4546H15V74.5455Z" fill="black"/>
<path d="M105 74.5455H90V89.4546H105V74.5455Z" fill="black"/>
<path d="M150 74.5455H135V89.4546H150V74.5455Z" fill="black"/>
<path d="M255 74.5455H240V89.4546H255V74.5455Z" fill="black"/>
<path d="M300 74.5455H285L285 89.4546H300V74.5455Z" fill="black"/>
<path d="M345 74.5455H330V89.4546H345V74.5455Z" fill="black"/>
<path d="M360 74.5455H345V89.4546H360V74.5455Z" fill="black"/>
<path d="M405 74.5455H390V89.4546H405V74.5455Z" fill="black"/>
<path d="M495 74.5455H480V89.4546H495V74.5455Z" fill="black"/>
<path d="M15 89.4546H0V104.364H15V89.4546Z" fill="black"/>
<path d="M30 89.4546H15V104.364H30V89.4546Z" fill="black"/>
<path d="M45 89.4546H30V104.364H45V89.4546Z" fill="black"/>
<path d="M60 89.4546H45V104.364H60V89.4546Z" fill="black"/>
<path d="M75 89.4546H60V104.364H75V89.4546Z" fill="black"/>
<path d="M90 89.4546H75V104.364H90V89.4546Z" fill="black"/>
<path d="M105 89.4546H90V104.364H105V89.4546Z" fill="black"/>
<path d="M135 89.4546H120V104.364H135V89.4546Z" fill="black"/>
<path d="M165 89.4546H150V104.364H165V89.4546Z" fill="black"/>
<path d="M195 89.4546H180V104.364H195V89.4546Z" fill="black"/>
<path d="M225 89.4546H210V104.364H225V89.4546Z" fill="black"/>
<path d="M255 89.4546H240V104.364H255V89.4546Z" fill="black"/>
<path d="M285 89.4546H270V104.364H285L285 89.4546Z" fill="black"/>
<path d="M315 89.4546H300V104.364H315V89.4546Z" fill="black"/>
<path d="M345 89.4546H330V104.364H345V89.4546Z" fill="black"/>
<path d="M375 89.4546H360V104.364H375V89.4546Z" fill="black"/>
<path d="M405 89.4546H390V104.364H405V89.4546Z" fill="black"/>
<path d="M420 89.4546H405V104.364H420V89.4546Z" fill="black"/>
<path d="M435 89.4546H420V104.364H435V89.4546Z" fill="black"/>
<path d="M450 89.4546H435V104.364H450V89.4546Z" fill="black"/>
<path d="M465 89.4546H450V104.364H465V89.4546Z" fill="black"/>
<path d="M480 89.4546H465V104.364H480V89.4546Z" fill="black"/>
<path d="M495 89.4546H480V104.364H495V89.4546Z" fill="black"/>
<path d="M165 104.364H150V119.273H165V104.364Z" fill="black"/>
<path d="M180 104.364H165V119.273H180V104.364Z" fill="black"/>
<path d="M285 104.364H270V119.273H285V104.364Z" fill="black"/>
<path d="M300 104.364H285V119.273H300V104.364Z" fill="black"/>
<path d="M315 104.364H300V119.273H315V104.364Z" fill="black"/>
<path d="M345 104.364H330V119.273H345V104.364Z" fill="black"/>
<path d="M360 104.364H345V119.273H360V104.364Z" fill="black"/>
<path d="M30 119.273H15V134.182H30V119.273Z" fill="black"/>
<path d="M45 119.273H30V134.182H45V119.273Z" fill="black"/>
<path d="M60 119.273H45V134.182H60V119.273Z" fill="black"/>
<path d="M105 119.273H90V134.182H105V119.273Z" fill="black"/>
<path d="M120 119.273H105V134.182H120V119.273Z" fill="black"/>
<path d="M135 119.273H120V134.182H135V119.273Z" fill="black"/>
<path d="M150 119.273H135V134.182H150V119.273Z" fill="black"/>
<path d="M165 119.273H150V134.182H165V119.273Z" fill="black"/>
<path d="M180 119.273H165V134.182H180V119.273Z" fill="black"/>
<path d="M225 119.273H210V134.182H225V119.273Z" fill="black"/>
<path d="M270 119.273H255V134.182H270V119.273Z" fill="black"/>
<path d="M300 119.273H285L285 134.182H300V119.273Z" fill="black"/>
<path d="M360 119.273H345V134.182H360V119.273Z" fill="black"/>
<path d="M375 119.273H360V134.182H375V119.273Z" fill="black"/>
<path d="M390 119.273H375V134.182H390V119.273Z" fill="black"/>
<path d="M495 119.273H480V134.182H495V119.273Z" fill="black"/>
<path d="M15 134.182H0V149.091H15V134.182Z" fill="black"/>
<path d="M60 134.182H45V149.091H60V134.182Z" fill="black"/>
<path d="M135 134.182H120V149.091H135V134.182Z" fill="black"/>
<path d="M180 134.182H165V149.091H180V134.182Z" fill="black"/>
<path d="M195 134.182H180V149.091H195V134.182Z" fill="black"/>
<path d="M270 134.182H255V149.091H270V134.182Z" fill="black"/>
<path d="M360 134.182H345V149.091H360V134.182Z" fill="black"/>
<path d="M375 134.182H360V149.091H375V134.182Z" fill="black"/>
<path d="M420 134.182H405V149.091H420V134.182Z" fill="black"/>
<path d="M435 134.182H420V149.091H435V134.182Z" fill="black"/>
<path d="M450 134.182H435V149.091H450V134.182Z" fill="black"/>
<path d="M465 134.182H450V149.091H465V134.182Z" fill="black"/>
<path d="M480 134.182H465V149.091H480V134.182Z" fill="black"/>
<path d="M495 134.182H480V149.091H495V134.182Z" fill="black"/>
<path d="M30 149.091H15V164H30V149.091Z" fill="black"/>
<path d="M45 149.091H30V164H45V149.091Z" fill="black"/>
<path d="M60 149.091H45V164H60V149.091Z" fill="black"/>
<path d="M105 149.091H90V164H105V149.091Z" fill="black"/>
<path d="M120 149.091H105V164H120V149.091Z" fill="black"/>
<path d="M165 149.091H150V164H165V149.091Z" fill="black"/>
<path d="M210 149.091H195V164H210V149.091Z" fill="black"/>
<path d="M270 149.091H255V164H270V149.091Z" fill="black"/>
<path d="M285 149.091H270V164H285V149.091Z" fill="black"/>
<path d="M330 149.091H315V164H330V149.091Z" fill="black"/>
<path d="M375 149.091H360V164H375V149.091Z" fill="black"/>
<path d="M390 149.091H375V164H390V149.091Z" fill="black"/>
<path d="M420 149.091H405V164H420V149.091Z" fill="black"/>
<path d="M480 149.091H465V164H480V149.091Z" fill="black"/>
<path d="M495 149.091H480V164H495V149.091Z" fill="black"/>
<path d="M15 164H0V178.909H15V164Z" fill="black"/>
<path d="M30 164H15V178.909H30V164Z" fill="black"/>
<path d="M150 164H135V178.909H150V164Z" fill="black"/>
<path d="M165 164H150V178.909H165V164Z" fill="black"/>
<path d="M180 164H165V178.909H180V164Z" fill="black"/>
<path d="M210 164H195V178.909H210V164Z" fill="black"/>
<path d="M300 164H285L285 178.909H300V164Z" fill="black"/>
<path d="M315 164H300V178.909H315V164Z" fill="black"/>
<path d="M375 164H360V178.909H375V164Z" fill="black"/>
<path d="M435 164H420V178.909H435V164Z" fill="black"/>
<path d="M450 164H435V178.909H450V164Z" fill="black"/>
<path d="M495 164H480V178.909H495V164Z" fill="black"/>
<path d="M15 178.909H0V193.818H15V178.909Z" fill="black"/>
<path d="M75 178.909H60V193.818H75V178.909Z" fill="black"/>
<path d="M90 178.909H75V193.818H90V178.909Z" fill="black"/>
<path d="M105 178.909H90V193.818H105V178.909Z" fill="black"/>
<path d="M180 178.909H165V193.818H180V178.909Z" fill="black"/>
<path d="M240 178.909H225V193.818H240V178.909Z" fill="black"/>
<path d="M255 178.909H240V193.818H255V178.909Z" fill="black"/>
<path d="M285 178.909H270V193.818H285L285 178.909Z" fill="black"/>
<path d="M315 178.909H300V193.818H315V178.909Z" fill="black"/>
<path d="M330 178.909H315V193.818H330V178.909Z" fill="black"/>
<path d="M345 178.909H330V193.818H345V178.909Z" fill="black"/>
<path d="M390 178.909H375V193.818H390V178.909Z" fill="black"/>
<path d="M405 178.909H390V193.818H405V178.909Z" fill="black"/>
<path d="M435 178.909H420V193.818H435V178.909Z" fill="black"/>
<path d="M450 178.909H435V193.818H450V178.909Z" fill="black"/>
<path d="M495 178.909H480V193.818H495V178.909Z" fill="black"/>
<path d="M30 193.818H15V208.727H30V193.818Z" fill="black"/>
<path d="M45 193.818H30V208.727H45V193.818Z" fill="black"/>
<path d="M90 193.818H75V208.727H90V193.818Z" fill="black"/>
<path d="M135 193.818H120V208.727H135V193.818Z" fill="black"/>
<path d="M195 193.818H180V208.727H195V193.818Z" fill="black"/>
<path d="M210 193.818H195V208.727H210V193.818Z" fill="black"/>
<path d="M255 193.818H240V208.727H255V193.818Z" fill="black"/>
<path d="M285 193.818H270V208.727H285V193.818Z" fill="black"/>
<path d="M315 193.818H300V208.727H315V193.818Z" fill="black"/>
<path d="M345 193.818H330V208.727H345V193.818Z" fill="black"/>
<path d="M360 193.818H345V208.727H360V193.818Z" fill="black"/>
<path d="M390 193.818H375V208.727H390V193.818Z" fill="black"/>
<path d="M435 193.818H420V208.727H435V193.818Z" fill="black"/>
<path d="M30 208.727H15V223.636H30V208.727Z" fill="black"/>
<path d="M105 208.727H90V223.636H105V208.727Z" fill="black"/>
<path d="M120 208.727H105V223.636H120V208.727Z" fill="black"/>
<path d="M135 208.727H120V223.636H135V208.727Z" fill="black"/>
<path d="M180 208.727H165V223.636H180V208.727Z" fill="black"/>
<path d="M195 208.727H180V223.636H195V208.727Z" fill="black"/>
<path d="M210 208.727H195V223.636H210V208.727Z" fill="black"/>
<path d="M225 208.727H210V223.636H225V208.727Z" fill="black"/>
<path d="M240 208.727H225V223.636H240V208.727Z" fill="black"/>
<path d="M270 208.727H255V223.636H270V208.727Z" fill="black"/>
<path d="M285 208.727H270V223.636H285V208.727Z" fill="black"/>
<path d="M345 208.727H330V223.636H345V208.727Z" fill="black"/>
<path d="M360 208.727H345V223.636H360V208.727Z" fill="black"/>
<path d="M375 208.727H360V223.636H375V208.727Z" fill="black"/>
<path d="M390 208.727H375V223.636H390V208.727Z" fill="black"/>
<path d="M405 208.727H390V223.636H405V208.727Z" fill="black"/>
<path d="M450 208.727H435V223.636H450V208.727Z" fill="black"/>
<path d="M465 208.727H450V223.636H465V208.727Z" fill="black"/>
<path d="M480 208.727H465V223.636H480V208.727Z" fill="black"/>
<path d="M495 208.727H480V223.636H495V208.727Z" fill="black"/>
<path d="M75 223.636H60V238.545H75V223.636Z" fill="black"/>
<path d="M135 223.636H120V238.545H135V223.636Z" fill="black"/>
<path d="M150 223.636H135V238.545H150V223.636Z" fill="black"/>
<path d="M165 223.636H150V238.545H165V223.636Z" fill="black"/>
<path d="M180 223.636H165V238.545H180V223.636Z" fill="black"/>
<path d="M195 223.636H180V238.545H195V223.636Z" fill="black"/>
<path d="M240 223.636H225V238.545H240V223.636Z" fill="black"/>
<path d="M270 223.636H255V238.545H270V223.636Z" fill="black"/>
<path d="M285 223.636H270V238.545H285V223.636Z" fill="black"/>
<path d="M300 223.636H285V238.545H300V223.636Z" fill="black"/>
<path d="M315 223.636H300V238.545H315V223.636Z" fill="black"/>
<path d="M345 223.636H330V238.545H345V223.636Z" fill="black"/>
<path d="M375 223.636H360V238.545H375V223.636Z" fill="black"/>
<path d="M390 223.636H375V238.545H390V223.636Z" fill="black"/>
<path d="M405 223.636H390V238.545H405V223.636Z" fill="black"/>
<path d="M420 223.636H405V238.545H420V223.636Z" fill="black"/>
<path d="M435 223.636H420V238.545H435V223.636Z" fill="black"/>
<path d="M480 223.636H465V238.545H480V223.636Z" fill="black"/>
<path d="M30 238.545H15V253.455H30V238.545Z" fill="black"/>
<path d="M90 238.545H75V253.455H90V238.545Z" fill="black"/>
<path d="M105 238.545H90V253.455H105V238.545Z" fill="black"/>
<path d="M135 238.545H120V253.455H135V238.545Z" fill="black"/>
<path d="M165 238.545H150V253.455H165V238.545Z" fill="black"/>
<path d="M195 238.545H180V253.455H195V238.545Z" fill="black"/>
<path d="M210 238.545H195V253.455H210V238.545Z" fill="black"/>
<path d="M255 238.545H240V253.455H255V238.545Z" fill="black"/>
<path d="M270 238.545H255V253.455H270V238.545Z" fill="black"/>
<path d="M315 238.545H300V253.455H315V238.545Z" fill="black"/>
<path d="M330 238.545H315V253.455H330V238.545Z" fill="black"/>
<path d="M345 238.545H330V253.455H345V238.545Z" fill="black"/>
<path d="M390 238.545H375V253.455H390V238.545Z" fill="black"/>
<path d="M405 238.545H390V253.455H405V238.545Z" fill="black"/>
<path d="M420 238.545H405V253.455H420V238.545Z" fill="black"/>
<path d="M450 238.545H435V253.455H450V238.545Z" fill="black"/>
<path d="M465 238.545H450V253.455H465V238.545Z" fill="black"/>
<path d="M480 238.545H465V253.455H480V238.545Z" fill="black"/>
<path d="M495 238.545H480V253.455H495V238.545Z" fill="black"/>
<path d="M30 253.455H15V268.364H30V253.455Z" fill="black"/>
<path d="M45 253.455H30V268.364H45V253.455Z" fill="black"/>
<path d="M90 253.455H75V268.364H90V253.455Z" fill="black"/>
<path d="M135 253.455H120V268.364H135V253.455Z" fill="black"/>
<path d="M195 253.455H180V268.364H195V253.455Z" fill="black"/>
<path d="M225 253.455H210V268.364H225V253.455Z" fill="black"/>
<path d="M255 253.455H240V268.364H255V253.455Z" fill="black"/>
<path d="M270 253.455H255V268.364H270V253.455Z" fill="black"/>
<path d="M300 253.455H285V268.364H300V253.455Z" fill="black"/>
<path d="M345 253.455H330V268.364H345V253.455Z" fill="black"/>
<path d="M495 253.455H480V268.364H495V253.455Z" fill="black"/>
<path d="M45 268.364H30V283.273H45V268.364Z" fill="black"/>
<path d="M75 268.364H60V283.273H75V268.364Z" fill="black"/>
<path d="M90 268.364H75V283.273H90V268.364Z" fill="black"/>
<path d="M105 268.364H90V283.273H105V268.364Z" fill="black"/>
<path d="M165 268.364H150V283.273H165V268.364Z" fill="black"/>
<path d="M195 268.364H180V283.273H195V268.364Z" fill="black"/>
<path d="M225 268.364H210V283.273H225V268.364Z" fill="black"/>
<path d="M300 268.364H285V283.273H300V268.364Z" fill="black"/>
<path d="M330 268.364H315V283.273H330V268.364Z" fill="black"/>
<path d="M345 268.364H330V283.273H345V268.364Z" fill="black"/>
<path d="M405 268.364H390V283.273H405V268.364Z" fill="black"/>
<path d="M435 268.364H420V283.273H435V268.364Z" fill="black"/>
<path d="M465 268.364H450V283.273H465V268.364Z" fill="black"/>
<path d="M45 283.273H30V298.182H45V283.273Z" fill="black"/>
<path d="M150 283.273L135 283.273V298.182H150V283.273Z" fill="black"/>
<path d="M180 283.273H165V298.182H180V283.273Z" fill="black"/>
<path d="M195 283.273H180V298.182H195V283.273Z" fill="black"/>
<path d="M225 283.273H210V298.182H225V283.273Z" fill="black"/>
<path d="M240 283.273L225 283.273V298.182H240V283.273Z" fill="black"/>
<path d="M255 283.273H240V298.182H255V283.273Z" fill="black"/>
<path d="M270 283.273H255V298.182H270V283.273Z" fill="black"/>
<path d="M285 283.273L270 283.273V298.182H285L285 283.273Z" fill="black"/>
<path d="M300 283.273H285L285 298.182H300V283.273Z" fill="black"/>
<path d="M375 283.273H360V298.182H375V283.273Z" fill="black"/>
<path d="M390 283.273L375 283.273V298.182H390V283.273Z" fill="black"/>
<path d="M420 283.273H405V298.182H420V283.273Z" fill="black"/>
<path d="M480 283.273L465 283.273V298.182H480V283.273Z" fill="black"/>
<path d="M495 283.273H480V298.182H495V283.273Z" fill="black"/>
<path d="M30 298.182H15V313.091H30V298.182Z" fill="black"/>
<path d="M90 298.182H75V313.091H90V298.182Z" fill="black"/>
<path d="M105 298.182H90V313.091H105V298.182Z" fill="black"/>
<path d="M135 298.182H120V313.091H135V298.182Z" fill="black"/>
<path d="M165 298.182H150V313.091H165V298.182Z" fill="black"/>
<path d="M195 298.182H180V313.091H195V298.182Z" fill="black"/>
<path d="M210 298.182H195V313.091H210V298.182Z" fill="black"/>
<path d="M255 298.182H240V313.091H255V298.182Z" fill="black"/>
<path d="M270 298.182H255V313.091H270V298.182Z" fill="black"/>
<path d="M315 298.182H300V313.091H315V298.182Z" fill="black"/>
<path d="M330 298.182H315V313.091H330V298.182Z" fill="black"/>
<path d="M345 298.182H330V313.091H345V298.182Z" fill="black"/>
<path d="M390 298.182H375V313.091H390V298.182Z" fill="black"/>
<path d="M405 298.182H390V313.091H405V298.182Z" fill="black"/>
<path d="M420 298.182H405V313.091H420V298.182Z" fill="black"/>
<path d="M450 298.182H435V313.091H450V298.182Z" fill="black"/>
<path d="M465 298.182H450V313.091H465V298.182Z" fill="black"/>
<path d="M480 298.182H465V313.091H480V298.182Z" fill="black"/>
<path d="M495 298.182H480V313.091H495V298.182Z" fill="black"/>
<path d="M15 313.091H0V328H15V313.091Z" fill="black"/>
<path d="M30 313.091H15V328H30V313.091Z" fill="black"/>
<path d="M45 313.091H30V328H45V313.091Z" fill="black"/>
<path d="M60 313.091H45V328H60V313.091Z" fill="black"/>
<path d="M75 313.091H60V328H75V313.091Z" fill="black"/>
<path d="M90 313.091H75V328H90V313.091Z" fill="black"/>
<path d="M435 313.091H420V328H435V313.091Z" fill="black"/>
<path d="M45 328H30V342.909H45V328Z" fill="black"/>
<path d="M75 328H60V342.909H75V328Z" fill="black"/>
<path d="M105 328H90V342.909H105V328Z" fill="black"/>
<path d="M120 328H105V342.909H120V328Z" fill="black"/>
<path d="M135 328H120V342.909H135V328Z" fill="black"/>
<path d="M180 328H165V342.909H180V328Z" fill="black"/>
<path d="M210 328H195V342.909H210V328Z" fill="black"/>
<path d="M255 328H240V342.909H255V328Z" fill="black"/>
<path d="M270 328H255V342.909H270V328Z" fill="black"/>
<path d="M285 328H270V342.909H285V328Z" fill="black"/>
<path d="M300 328H285V342.909H300V328Z" fill="black"/>
<path d="M315 328H300V342.909H315V328Z" fill="black"/>
<path d="M360 328H345V342.909H360V328Z" fill="black"/>
<path d="M390 328H375V342.909H390V328Z" fill="black"/>
<path d="M465 328H450V342.909H465V328Z" fill="black"/>
<path d="M480 328H465V342.909H480V328Z" fill="black"/>
<path d="M495 328H480V342.909H495V328Z" fill="black"/>
<path d="M45 342.909H30V357.818H45V342.909Z" fill="black"/>
<path d="M75 342.909H60V357.818H75V342.909Z" fill="black"/>
<path d="M120 342.909H105V357.818H120V342.909Z" fill="black"/>
<path d="M150 342.909H135V357.818H150V342.909Z" fill="black"/>
<path d="M180 342.909H165V357.818H180V342.909Z" fill="black"/>
<path d="M195 342.909H180V357.818H195V342.909Z" fill="black"/>
<path d="M210 342.909H195V357.818H210V342.909Z" fill="black"/>
<path d="M240 342.909H225V357.818H240V342.909Z" fill="black"/>
<path d="M270 342.909H255V357.818H270V342.909Z" fill="black"/>
<path d="M285 342.909H270V357.818H285V342.909Z" fill="black"/>
<path d="M300 342.909H285V357.818H300V342.909Z" fill="black"/>
<path d="M330 342.909H315V357.818H330V342.909Z" fill="black"/>
<path d="M360 342.909H345V357.818H360V342.909Z" fill="black"/>
<path d="M375 342.909H360V357.818H375V342.909Z" fill="black"/>
<path d="M390 342.909H375V357.818H390V342.909Z" fill="black"/>
<path d="M405 342.909H390V357.818H405V342.909Z" fill="black"/>
<path d="M420 342.909H405V357.818H420V342.909Z" fill="black"/>
<path d="M450 342.909H435V357.818H450V342.909Z" fill="black"/>
<path d="M465 342.909H450V357.818H465V342.909Z" fill="black"/>
<path d="M480 342.909H465V357.818H480V342.909Z" fill="black"/>
<path d="M495 342.909H480V357.818H495V342.909Z" fill="black"/>
<path d="M45 357.818H30V372.727H45V357.818Z" fill="black"/>
<path d="M105 357.818H90V372.727H105V357.818Z" fill="black"/>
<path d="M120 357.818H105V372.727H120V357.818Z" fill="black"/>
<path d="M180 357.818H165V372.727H180V357.818Z" fill="black"/>
<path d="M240 357.818H225V372.727H240V357.818Z" fill="black"/>
<path d="M300 357.818H285L285 372.727H300V357.818Z" fill="black"/>
<path d="M360 357.818H345V372.727H360V357.818Z" fill="black"/>
<path d="M375 357.818H360V372.727H375V357.818Z" fill="black"/>
<path d="M390 357.818H375V372.727H390V357.818Z" fill="black"/>
<path d="M405 357.818H390V372.727H405V357.818Z" fill="black"/>
<path d="M420 357.818H405V372.727H420V357.818Z" fill="black"/>
<path d="M435 357.818H420V372.727H435V357.818Z" fill="black"/>
<path d="M465 357.818H450V372.727H465V357.818Z" fill="black"/>
<path d="M495 357.818H480V372.727H495V357.818Z" fill="black"/>
<path d="M135 372.727H120V387.636H135V372.727Z" fill="black"/>
<path d="M150 372.727H135V387.636H150V372.727Z" fill="black"/>
<path d="M180 372.727H165V387.636H180V372.727Z" fill="black"/>
<path d="M210 372.727H195V387.636H210V372.727Z" fill="black"/>
<path d="M240 372.727H225V387.636H240V372.727Z" fill="black"/>
<path d="M255 372.727H240V387.636H255V372.727Z" fill="black"/>
<path d="M270 372.727H255V387.636H270V372.727Z" fill="black"/>
<path d="M285 372.727H270V387.636H285L285 372.727Z" fill="black"/>
<path d="M300 372.727H285L285 387.636H300V372.727Z" fill="black"/>
<path d="M315 372.727H300V387.636H315V372.727Z" fill="black"/>
<path d="M330 372.727H315V387.636H330V372.727Z" fill="black"/>
<path d="M360 372.727H345V387.636H360V372.727Z" fill="black"/>
<path d="M375 372.727H360V387.636H375V372.727Z" fill="black"/>
<path d="M435 372.727H420V387.636H435V372.727Z" fill="black"/>
<path d="M450 372.727H435V387.636H450V372.727Z" fill="black"/>
<path d="M495 372.727H480V387.636H495V372.727Z" fill="black"/>
<path d="M15 387.636H0V402.545H15V387.636Z" fill="black"/>
<path d="M30 387.636H15V402.545H30V387.636Z" fill="black"/>
<path d="M45 387.636H30V402.545H45V387.636Z" fill="black"/>
<path d="M60 387.636H45V402.545H60V387.636Z" fill="black"/>
<path d="M75 387.636H60V402.545H75V387.636Z" fill="black"/>
<path d="M90 387.636H75V402.545H90V387.636Z" fill="black"/>
<path d="M105 387.636H90V402.545H105V387.636Z" fill="black"/>
<path d="M135 387.636H120V402.545H135V387.636Z" fill="black"/>
<path d="M180 387.636H165V402.545H180V387.636Z" fill="black"/>
<path d="M195 387.636H180V402.545H195V387.636Z" fill="black"/>
<path d="M210 387.636H195V402.545H210V387.636Z" fill="black"/>
<path d="M270 387.636H255V402.545H270V387.636Z" fill="black"/>
<path d="M285 387.636H270V402.545H285V387.636Z" fill="black"/>
<path d="M300 387.636H285V402.545H300V387.636Z" fill="black"/>
<path d="M360 387.636H345V402.545H360V387.636Z" fill="black"/>
<path d="M375 387.636H360V402.545H375V387.636Z" fill="black"/>
<path d="M405 387.636H390V402.545H405V387.636Z" fill="black"/>
<path d="M435 387.636H420V402.545H435V387.636Z" fill="black"/>
<path d="M495 387.636H480V402.545H495V387.636Z" fill="black"/>
<path d="M15 402.545H0V417.455H15V402.545Z" fill="black"/>
<path d="M105 402.545H90V417.455H105V402.545Z" fill="black"/>
<path d="M150 402.545H135V417.455H150V402.545Z" fill="black"/>
<path d="M210 402.545H195V417.455H210V402.545Z" fill="black"/>
<path d="M270 402.545H255V417.455H270V402.545Z" fill="black"/>
<path d="M330 402.545H315V417.455H330V402.545Z" fill="black"/>
<path d="M375 402.545H360V417.455H375V402.545Z" fill="black"/>
<path d="M435 402.545H420V417.455H435V402.545Z" fill="black"/>
<path d="M450 402.545H435V417.455H450V402.545Z" fill="black"/>
<path d="M480 402.545H465V417.455H480V402.545Z" fill="black"/>
<path d="M495 402.545H480V417.455H495V402.545Z" fill="black"/>
<path d="M15 417.455H0V432.364H15V417.455Z" fill="black"/>
<path d="M45 417.455H30V432.364H45V417.455Z" fill="black"/>
<path d="M60 417.455H45V432.364H60V417.455Z" fill="black"/>
<path d="M75 417.455H60V432.364H75V417.455Z" fill="black"/>
<path d="M105 417.455H90V432.364H105V417.455Z" fill="black"/>
<path d="M150 417.455H135V432.364H150V417.455Z" fill="black"/>
<path d="M165 417.455H150V432.364H165V417.455Z" fill="black"/>
<path d="M225 417.455H210V432.364H225V417.455Z" fill="black"/>
<path d="M240 417.455H225V432.364H240V417.455Z" fill="black"/>
<path d="M255 417.455H240V432.364H255V417.455Z" fill="black"/>
<path d="M315 417.455H300V432.364H315V417.455Z" fill="black"/>
<path d="M330 417.455H315V432.364H330V417.455Z" fill="black"/>
<path d="M345 417.455H330V432.364H345V417.455Z" fill="black"/>
<path d="M375 417.455H360V432.364H375V417.455Z" fill="black"/>
<path d="M390 417.455H375V432.364H390V417.455Z" fill="black"/>
<path d="M405 417.455H390V432.364H405V417.455Z" fill="black"/>
<path d="M420 417.455H405V432.364H420V417.455Z" fill="black"/>
<path d="M435 417.455H420V432.364H435V417.455Z" fill="black"/>
<path d="M450 417.455H435V432.364H450V417.455Z" fill="black"/>
<path d="M465 417.455H450V432.364H465V417.455Z" fill="black"/>
<path d="M480 417.455H465V432.364H480V417.455Z" fill="black"/>
<path d="M15 432.364H0V447.273H15V432.364Z" fill="black"/>
<path d="M45 432.364H30V447.273H45V432.364Z" fill="black"/>
<path d="M60 432.364H45V447.273H60V432.364Z" fill="black"/>
<path d="M75 432.364H60V447.273H75V432.364Z" fill="black"/>
<path d="M105 432.364H90V447.273H105V432.364Z" fill="black"/>
<path d="M135 432.364H120V447.273H135V432.364Z" fill="black"/>
<path d="M165 432.364H150V447.273H165V432.364Z" fill="black"/>
<path d="M180 432.364H165V447.273H180V432.364Z" fill="black"/>
<path d="M225 432.364H210V447.273H225V432.364Z" fill="black"/>
<path d="M240 432.364H225V447.273H240V432.364Z" fill="black"/>
<path d="M255 432.364H240V447.273H255V432.364Z" fill="black"/>
<path d="M300 432.364H285V447.273H300V432.364Z" fill="black"/>
<path d="M315 432.364H300V447.273H315V432.364Z" fill="black"/>
<path d="M345 432.364H330V447.273H345V432.364Z" fill="black"/>
<path d="M360 432.364H345V447.273H360V432.364Z" fill="black"/>
<path d="M405 432.364H390V447.273H405V432.364Z" fill="black"/>
<path d="M420 432.364H405V447.273H420V432.364Z" fill="black"/>
<path d="M435 432.364H420V447.273H435V432.364Z" fill="black"/>
<path d="M480 432.364H465V447.273H480V432.364Z" fill="black"/>
<path d="M495 432.364H480V447.273H495V432.364Z" fill="black"/>
<path d="M15 447.273H0V462.182H15V447.273Z" fill="black"/>
<path d="M45 447.273H30V462.182H45V447.273Z" fill="black"/>
<path d="M60 447.273H45V462.182H60V447.273Z" fill="black"/>
<path d="M75 447.273H60V462.182H75V447.273Z" fill="black"/>
<path d="M105 447.273H90V462.182H105V447.273Z" fill="black"/>
<path d="M135 447.273H120V462.182H135V447.273Z" fill="black"/>
<path d="M150 447.273H135V462.182H150V447.273Z" fill="black"/>
<path d="M180 447.273H165V462.182H180V447.273Z" fill="black"/>
<path d="M210 447.273H195V462.182H210V447.273Z" fill="black"/>
<path d="M240 447.273H225V462.182H240V447.273Z" fill="black"/>
<path d="M270 447.273H255V462.182H270V447.273Z" fill="black"/>
<path d="M300 447.273H285V462.182H300V447.273Z" fill="black"/>
<path d="M330 447.273H315V462.182H330V447.273Z" fill="black"/>
<path d="M360 447.273H345V462.182H360V447.273Z" fill="black"/>
<path d="M390 447.273H375V462.182H390V447.273Z" fill="black"/>
<path d="M420 447.273H405V462.182H420V447.273Z" fill="black"/>
<path d="M450 447.273H435V462.182H450V447.273Z" fill="black"/>
<path d="M480 447.273H465V462.182H480V447.273Z" fill="black"/>
<path d="M15 462.182H0V477.091H15V462.182Z" fill="black"/>
<path d="M105 462.182H90V477.091H105V462.182Z" fill="black"/>
<path d="M135 462.182H120V477.091H135V462.182Z" fill="black"/>
<path d="M150 462.182H135V477.091H150V462.182Z" fill="black"/>
<path d="M165 462.182H150V477.091H165V462.182Z" fill="black"/>
<path d="M180 462.182H165V477.091H180V462.182Z" fill="black"/>
<path d="M195 462.182H180V477.091H195V462.182Z" fill="black"/>
<path d="M210 462.182H195V477.091H210V462.182Z" fill="black"/>
<path d="M225 462.182H210V477.091H225V462.182Z" fill="black"/>
<path d="M240 462.182H225V477.091H240V462.182Z" fill="black"/>
<path d="M270 462.182H255V477.091H270V462.182Z" fill="black"/>
<path d="M300 462.182H285V477.091H300V462.182Z" fill="black"/>
<path d="M330 462.182H315V477.091H330V462.182Z" fill="black"/>
<path d="M345 462.182H330V477.091H345V462.182Z" fill="black"/>
<path d="M375 462.182H360V477.091H375V462.182Z" fill="black"/>
<path d="M390 462.182H375V477.091H390V462.182Z" fill="black"/>
<path d="M405 462.182H390V477.091H405V462.182Z" fill="black"/>
<path d="M420 462.182H405V477.091H420V462.182Z" fill="black"/>
<path d="M450 462.182H435V477.091H450V462.182Z" fill="black"/>
<path d="M465 462.182H450V477.091H465V462.182Z" fill="black"/>
<path d="M495 462.182H480V477.091H495V462.182Z" fill="black"/>
<path d="M15 477.091H0V492H15V477.091Z" fill="black"/>
<path d="M30 477.091H15V492H30V477.091Z" fill="black"/>
<path d="M45 477.091H30V492H45V477.091Z" fill="black"/>
<path d="M60 477.091H45V492H60V477.091Z" fill="black"/>
<path d="M75 477.091H60V492H75V477.091Z" fill="black"/>
<path d="M90 477.091H75V492H90V477.091Z" fill="black"/>
<path d="M105 477.091H90V492H105V477.091Z" fill="black"/>
<path d="M180 477.091H165V492H180V477.091Z" fill="black"/>
<path d="M195 477.091H180V492H195V477.091Z" fill="black"/>
<path d="M210 477.091H195V492H210V477.091Z" fill="black"/>
<path d="M270 477.091H255V492H270V477.091Z" fill="black"/>
<path d="M285 477.091H270V492H285L285 477.091Z" fill="black"/>
<path d="M300 477.091H285L285 492H300V477.091Z" fill="black"/>
<path d="M375 477.091H360V492H375V477.091Z" fill="black"/>
<path d="M390 477.091H375V492H390V477.091Z" fill="black"/>
<path d="M450 477.091H435V492H450V477.091Z" fill="black"/>
<path d="M465 477.091H450V492H465V477.091Z" fill="black"/>
</svg>
